<svg id="Layer_1" data-name="Layer 1" xmlns="http://www.w3.org/2000/svg" viewBox="0 0 38.6 35.34"><defs><style>.cls-1{fill:#fff;}.cls-2{fill:#21a366;}.cls-3{fill:#185c37;}.cls-4{fill:#107c41;}.cls-5{fill:#33c481;}.cls-6{opacity:0.67;}.cls-7{opacity:0.05;}.cls-10,.cls-11,.cls-12,.cls-7,.cls-8,.cls-9{isolation:isolate;}.cls-8{opacity:0.1;}.cls-9{opacity:0.2;}.cls-10{opacity:0.01;}.cls-11{opacity:0.3;}.cls-12{opacity:0.15;}</style></defs><path id="_" data-name=" " class="cls-1" d="M19.52,2.44H32.19V26.69H19.52ZM16.09,7.75l-3.76,7.52,3.86,7.65-4.3-.26-1.81-4.24-1.72,4L4.44,22.2l3.45-6.85L4.65,8.49l4-.24,1.52,3.91L12,8.06Z"/><g id="Excel_32x" data-name="Excel 32x"><path id="Path-47" class="cls-2" d="M11.25,0H37a1.57,1.57,0,0,1,1.14.49,1.75,1.75,0,0,1,.47,1.19v31.9a1.75,1.75,0,0,1-.47,1.19,1.57,1.57,0,0,1-1.14.49H11.25a1.63,1.63,0,0,1-1.6-1.66h0V1.68A1.65,1.65,0,0,1,11.24,0Z"/><path id="Path-48" class="cls-3" d="M9.65,17.63v16a1.64,1.64,0,0,0,1.55,1.71H37a1.63,1.63,0,0,0,1.61-1.67h0v-16Z"/><path id="Rectangle-12" class="cls-4" d="M9.65,8.82H38.59v8.82H9.65Z"/><path id="Path-49" class="cls-5" d="M37,0H24.12V26.45H38.59V1.68A1.75,1.75,0,0,0,38.12.49,1.57,1.57,0,0,0,37,0Z"/><path id="Rectangle-13" class="cls-2" d="M24.12,8.82H38.6v8.82H24.12Z"/><path id="Rectangle-14" class="cls-4" d="M24.12,17.63H38.6v8.82H24.12Z"/><g id="dropshadow-3" class="cls-6"><path id="Path-50" class="cls-7" d="M19.89,7.2H11.48a.61.61,0,0,0-.6.63V27.44a.62.62,0,0,0,.6.64h8.41a1.23,1.23,0,0,0,1.2-1.26h0V8.46a1.23,1.23,0,0,0-1.2-1.26Z"/><path id="Path-51" class="cls-8" d="M17.68,10.51h-8V30.75h8a1.63,1.63,0,0,0,1.62-1.63v-17A1.63,1.63,0,0,0,17.68,10.51Z"/><path id="Path-52" class="cls-9" d="M17.68,9.34h-8V29.56h8a1.63,1.63,0,0,0,1.62-1.62v-17A1.64,1.64,0,0,0,17.68,9.34Z"/><path id="Path-53" class="cls-8" d="M19.42,7.6H11a.63.63,0,0,0-.6.62V27.84a.61.61,0,0,0,.59.63h8.41a1.23,1.23,0,0,0,1.21-1.25h0V8.85A1.21,1.21,0,0,0,19.46,7.6h0Z"/><path id="Path-54" class="cls-8" d="M19.41,8.11H11a.62.62,0,0,0-.6.64h0V28.16a.63.63,0,0,0,.6.63h8.41a1.22,1.22,0,0,0,1.17-1.27V9.37A1.22,1.22,0,0,0,19.41,8.11Z"/><path id="Path-55" class="cls-10" d="M18.05,6.63H9.65V23.09H9.53v2.58a.61.61,0,0,0,.6.62h0L16.81,25c.67,0,2.45-.6,2.45-1.29V7.89a1.23,1.23,0,0,0-1.2-1.26Z"/><path id="Path-56" class="cls-9" d="M17.68,9.9h-8V30.12h8A1.63,1.63,0,0,0,19.3,28.5v-17A1.64,1.64,0,0,0,17.68,9.9Z"/><path id="Path-57" class="cls-11" d="M17.69,8.13h-8V27.91h8a1.62,1.62,0,0,0,1.61-1.62V9.75A1.62,1.62,0,0,0,17.69,8.13Z"/><path id="Path-58" class="cls-11" d="M17.68,8.13h-8V27.85h8a1.62,1.62,0,0,0,1.62-1.62V9.75A1.62,1.62,0,0,0,17.68,8.13Z"/><path id="Path-59" class="cls-11" d="M17.68,8.53h-8V28.75h8a1.61,1.61,0,0,0,1.62-1.6v-17A1.64,1.64,0,0,0,17.68,8.53Z"/><path id="Path-60" class="cls-9" d="M17.68,8.91h-8V29.13h8a1.64,1.64,0,0,0,1.62-1.64v-17A1.62,1.62,0,0,0,17.68,8.91Z"/><path id="Path-61" class="cls-8" d="M19.21,8.75h-8.4a.61.61,0,0,0-.61.61V27.75a.62.62,0,0,0,.61.63h8.4a1.23,1.23,0,0,0,1.2-1.26h0V10a1.22,1.22,0,0,0-1.2-1.21Z"/><path id="Path-62" class="cls-9" d="M18.28,8.75H9.89a.41.41,0,0,0-.22,0V27.91a.81.81,0,0,0,.22,0H18.3a1.23,1.23,0,0,0,1.2-1.26h0V10A1.23,1.23,0,0,0,18.32,8.7h0Z"/><path id="Path-63" class="cls-11" d="M16.17,7.61H10.05a.61.61,0,0,0-.6.62h0v18.4a.63.63,0,0,0,.6.62h8.41A1.23,1.23,0,0,0,19.66,26V9.42c0-.74-1.63-1.15-1.81-1.38a3.53,3.53,0,0,0-1.68-.43Z"/><path id="Path-64" class="cls-8" d="M18.81,9.6H10.4a.63.63,0,0,0-.6.63V28.64a.62.62,0,0,0,.6.64h8.41A1.24,1.24,0,0,0,20,28V10.86A1.22,1.22,0,0,0,18.82,9.6Z"/><path id="Path-65" class="cls-8" d="M18.05,7H9.65V23.45H9.53V26a.61.61,0,0,0,.59.63h0l6.68-1.29c.67,0,2.45-.6,2.45-1.29V8.24A1.23,1.23,0,0,0,18.06,7Z"/><path id="Path-66" class="cls-12" d="M18.05,7.3H9.65V23.75H9.53v2.57a.61.61,0,0,0,.59.63h0l6.68-1.28c.67,0,2.45-.6,2.45-1.29V8.56a1.23,1.23,0,0,0-1.2-1.26Z"/></g><path id="Back_Plate-3" data-name="Back Plate-3" class="cls-4" d="M1.61,7.55H17.69A1.66,1.66,0,0,1,19.3,9.24V26a1.66,1.66,0,0,1-1.58,1.72H1.61A1.63,1.63,0,0,1,0,26.08H0V9.24A1.66,1.66,0,0,1,1.61,7.55Z"/><path id="Path-67" class="cls-1" d="M4.38,23.93l3.79-6.18-3.48-6.1h2.8l1.89,3.9c.13.28.25.57.36.86.12-.29.26-.59.4-.86l2-3.87h2.57l-3.53,6.07,3.65,6.17H12.09l-2.2-4.25q-.15-.29-.27-.57a2.77,2.77,0,0,1-.26.55L7.11,23.94Z"/></g></svg>