<svg id="Layer_1" data-name="Layer 1" xmlns="http://www.w3.org/2000/svg" viewBox="0 0 43.69 27.8"><defs><style>.cls-1{fill:none;}.cls-2{fill:#0364b8;}.cls-3{fill:#0078d4;}.cls-4{fill:#1490df;}.cls-5{fill:#28a8ea;}</style></defs><g id="OneDrive_32x" data-name="OneDrive 32x"><path id="Rectangle-9" class="cls-1" d="M2.14-5.8h39.5V33.6H2.24Z"/><path id="Path-24" class="cls-2" d="M17.14,8l8.3,5,5-2.1a8.76,8.76,0,0,1,3.2-.7h.5a12.27,12.27,0,0,0-22.2-3.7H12A11.21,11.21,0,0,1,17.14,8Z"/><path id="Path-25" class="cls-3" d="M17.14,8a10.48,10.48,0,0,0-5.2-1.5h-.1A9.9,9.9,0,0,0,2,16.4,9.57,9.57,0,0,0,3.84,22l7.3-3.1,3.3-1.3,7.2-3,3.8-1.6Z"/><path id="Path-26" class="cls-4" d="M34.14,10.3h-.5a7.11,7.11,0,0,0-3.2.7l-4.9,2.1,1.4.9,4.7,2.8,2,1.2,7,4.2a7.93,7.93,0,0,0-3.2-10.8,5.44,5.44,0,0,0-3.3-1.1Z"/><path id="Path-27" class="cls-5" d="M33.64,17.9l-2-1.2-4.7-2.8-1.4-.9-3.8,1.6-7.2,3L11.34,19,4,22.1a9.69,9.69,0,0,0,8.1,4.2h21.5a8.12,8.12,0,0,0,7.1-4.2Z"/></g></svg>