<svg id="Layer_1" data-name="Layer 1" xmlns="http://www.w3.org/2000/svg" viewBox="0 0 39.45 39.45"><defs><style>.cls-1{fill:none;}.cls-2{fill:#0364b8;}.cls-3{fill:#0078d4;}.cls-4{fill:#1490df;}.cls-5{fill:#28a8ea;}</style></defs><g id="OneDrive_32x" data-name="OneDrive 32x"><path id="Rectangle-9" class="cls-1" d="M0,0H39.45V39.45H0Z"/><path id="Path-24" class="cls-2" d="M15.05,13.79l8.28,5,5-2.07a8.17,8.17,0,0,1,3.19-.66h.54A12.34,12.34,0,0,0,9.81,12.35h.13A9.76,9.76,0,0,1,15.05,13.79Z"/><path id="Path-25" class="cls-3" d="M15.05,13.79A10,10,0,0,0,9.9,12.32H9.77a9.86,9.86,0,0,0-8,15.49l7.3-3.07,3.29-1.33,7.23-3,3.77-1.59Z"/><path id="Path-26" class="cls-4" d="M32,16h-.54a8.11,8.11,0,0,0-3.18.65l-4.93,2.08,1.43.86,4.69,2.78,2,1.22,7,4.2A8,8,0,0,0,35.24,17a8.11,8.11,0,0,0-3.3-.95Z"/><path id="Path-27" class="cls-5" d="M31.49,23.65l-2-1.23L24.8,19.61l-1.43-.86L19.6,20.34l-7.23,3L9.12,24.7l-7.3,3.08A9.86,9.86,0,0,0,9.91,32H31.44a8,8,0,0,0,7.05-4.21Z"/></g></svg>