<svg id="Layer_1" data-name="Layer 1" xmlns="http://www.w3.org/2000/svg" xmlns:xlink="http://www.w3.org/1999/xlink" viewBox="0 0 53.4 36.68"><defs><style>.cls-1{fill:#123b6d;}.cls-2{fill:#28a8ea;}.cls-3{fill:#14447d;}.cls-4{fill:#0364b8;}.cls-5{fill:#0664b2;}.cls-6{fill:#0078d4;}.cls-7{fill:#50d9ff;}.cls-8{fill:#0358a7;}.cls-9{fill:url(#linear-gradient);}.cls-10{fill:#0a2767;opacity:0.5;}.cls-10,.cls-12,.cls-13,.cls-14,.cls-15,.cls-16,.cls-17,.cls-19{isolation:isolate;}.cls-11{opacity:0.67;}.cls-12{opacity:0.05;}.cls-13{opacity:0.1;}.cls-14{opacity:0.2;}.cls-15{opacity:0.01;}.cls-16{opacity:0.3;}.cls-17{opacity:0.15;}.cls-18,.cls-19{fill:#fff;}.cls-19{opacity:0.4;}.cls-20{fill:url(#linear-gradient-2);}</style><linearGradient id="linear-gradient" x1="-71.42" y1="338.54" x2="-72.32" y2="337.96" gradientTransform="matrix(24, 0, 0, -13.5, 1753.76, 4593.29)" gradientUnits="userSpaceOnUse"><stop offset="0" stop-color="#35b8f1"/><stop offset="0.75" stop-color="#0d64ad"/></linearGradient><linearGradient id="linear-gradient-2" x1="-72.86" y1="331.02" x2="-72.86" y2="329.71" gradientTransform="matrix(9.51, 0, 0, -9.77, 706.13, 3248.16)" gradientUnits="userSpaceOnUse"><stop offset="0" stop-color="#f2f2f2"/><stop offset="1" stop-color="#fff"/></linearGradient></defs><g id="v"><g id="Outlook_32x" data-name="Outlook 32x"><circle id="Oval" class="cls-1" cx="43.45" cy="18.54" r="1.1"/><circle class="cls-1" cx="14.05" cy="18.34" r="1.3"/><path id="Shape" class="cls-1" d="M28.85,18.34H13.55V19l14.2,7.8.2.1a1.72,1.72,0,0,0,1.7,0l.2-.1L44.05,19v-.7H28.85"/><path class="cls-1" d="M28.85,18.34H13.55v-.7l14.2-7.8.2-.1a1.72,1.72,0,0,1,1.7,0l.2.1L44,17.64v.7H28.85"/><path id="Rectangle-path" class="cls-2" d="M17.65.74h22.4a1.79,1.79,0,0,1,1.8,1.8v28.9a1.79,1.79,0,0,1-1.8,1.8H17.65a1.79,1.79,0,0,1-1.8-1.8V2.54A1.79,1.79,0,0,1,17.65.74Z"/><path class="cls-3" d="M15.85,19.64h10.4v7.9H15.85Z"/><path class="cls-4" d="M25,19.64h9.1v7.9H25Z"/><path class="cls-5" d="M15.85,12H25v7.6h-9.1Z"/><path class="cls-6" d="M34.05,19.64h7.8v7.9h-7.8ZM25,12h9.1v7.6H25Zm-9.1-7.6H25V12h-9.1Z"/><path class="cls-7" d="M34.05,4.44h7.8V12h-7.8Z"/><path class="cls-8" d="M17.65.74h22.4a2.11,2.11,0,0,1,1.3.5,1.85,1.85,0,0,1,.5,1.2v2H15.75v-2A1.94,1.94,0,0,1,17.65.74Z"/><path id="Envelope" class="cls-9" d="M44.15,19,30,26.84c-.1,0-.1.1-.2.1a1.72,1.72,0,0,1-1.7,0c-.1,0-.1-.1-.2-.1L13.65,19a.67.67,0,0,1-.4-.7V34a1.9,1.9,0,0,0,1.9,1.9h27.5a1.91,1.91,0,0,0,2-1.8V18.34c-.1.3-.2.6-.5.7Z"/><path class="cls-10" d="M28.85,27.14a2.92,2.92,0,0,1-.9-.2l-14.3-7.8.6-1.1s14,7.7,14.3,7.8a.64.64,0,0,0,.6,0l14.3-7.9.6,1.1-14.3,7.9A1.49,1.49,0,0,1,28.85,27.14Z"/><path class="cls-2" d="M15.15,35.94h27.5a1.92,1.92,0,0,0,1.2-.4l-15.8-8.7c-.1,0-.1-.1-.2-.1l-14.2-7.8-.4-.2V34a1.78,1.78,0,0,0,1.9,1.9Z"/><g id="dropshadow" class="cls-11"><path class="cls-12" d="M25.15,8.24H14.55a.37.37,0,0,0-.1.3v19.6c0,.4.3.6.7.6h9.1a1.32,1.32,0,0,0,1.3-1.3h0V9A1,1,0,0,0,25.15,8.24Z"/><path class="cls-13" d="M21.85,11.24h-8.7v20.2h8.7a1.67,1.67,0,0,0,1.7-1.6v-17A1.5,1.5,0,0,0,21.85,11.24Z"/><path class="cls-14" d="M21.85,10h-8.7v20.2h8.7a1.67,1.67,0,0,0,1.7-1.6v-17A1.61,1.61,0,0,0,21.85,10Z"/><path class="cls-13" d="M23.75,8.24h-9.1a.75.75,0,0,0-.7.6v19.6c0,.4.3.6.7.6h9.1a1.32,1.32,0,0,0,1.3-1.3V9.34A1.31,1.31,0,0,0,23.75,8.24Z"/><path class="cls-13" d="M23.75,8.84h-9.1a.75.75,0,0,0-.7.6v19.4c0,.4.3.6.7.6l9,.2a1.5,1.5,0,0,0,1.4-1.4V10A1.18,1.18,0,0,0,23.75,8.84Z"/><path class="cls-15" d="M13.15,8.24v15.6h-.1v2.6a.58.58,0,0,0,.6.6h0l7.2-1.3c.7,0,2.7-.6,2.7-1.3V8.64a.37.37,0,0,0-.1-.3H13.15Z"/><path class="cls-14" d="M21.85,10.64h-8.7v20.2h8.7a1.67,1.67,0,0,0,1.7-1.6v-17A1.5,1.5,0,0,0,21.85,10.64Z"/><path class="cls-16" d="M21.85,8.84h-8.7v19.8h8.7a1.67,1.67,0,0,0,1.7-1.6V10.44A1.55,1.55,0,0,0,21.85,8.84Z"/><path class="cls-16" d="M21.85,8.84h-8.7v19.7h8.7a1.67,1.67,0,0,0,1.7-1.6V10.44A1.55,1.55,0,0,0,21.85,8.84Z"/><path class="cls-16" d="M21.85,9.24h-8.7v20.2h8.7a1.67,1.67,0,0,0,1.7-1.6v-17A1.61,1.61,0,0,0,21.85,9.24Z"/><path class="cls-14" d="M21.85,9.64h-8.7v20.2h8.7a1.67,1.67,0,0,0,1.7-1.6v-17A1.5,1.5,0,0,0,21.85,9.64Z"/><path class="cls-13" d="M23.55,9.34h-9.1a.58.58,0,0,0-.6.6h0v18.4a.58.58,0,0,0,.6.6h9.1a1.24,1.24,0,0,0,1.3-1.2h0V10.54A1.31,1.31,0,0,0,23.55,9.34Z"/><path class="cls-14" d="M22.55,9.34h-9.1c-.1,0-.2,0-.2.1v19.2h9.3a1.32,1.32,0,0,0,1.3-1.3h0V10.64a1.32,1.32,0,0,0-1.3-1.3Z"/><path class="cls-16" d="M20.25,8.34h-6.6a.75.75,0,0,0-.7.6h0v18.4a.58.58,0,0,0,.6.6h9.1a1.24,1.24,0,0,0,1.3-1.2h0V10.14c0-.8-1.8-1.2-2-1.4A3.29,3.29,0,0,0,20.25,8.34Z"/><path class="cls-13" d="M23.05,10.34H14a.58.58,0,0,0-.6.6h0v18.4a.58.58,0,0,0,.6.6h9.1a1.32,1.32,0,0,0,1.3-1.3V11.44A1.16,1.16,0,0,0,23.05,10.34Z"/><path class="cls-13" d="M22.25,7.64h-6.5v5.6h-2.6v10.9h-.1v2.6a.58.58,0,0,0,.6.6h0l7.2-1.3c.7,0,2.7-.6,2.7-1.3V8.94A1.32,1.32,0,0,0,22.25,7.64Z"/><path class="cls-17" d="M22.25,7.94h-6.5v5.3h-2.6v11.2h-.1V27a.58.58,0,0,0,.6.6h0l7.2-1.3c.7,0,2.7-.6,2.7-1.3V9.14a1.24,1.24,0,0,0-1.3-1.2Z"/></g><path id="Back_Plate" data-name="Back Plate" class="cls-6" d="M4.45,8.24h17.4a1.69,1.69,0,0,1,1.7,1.7h0v16.8a1.71,1.71,0,0,1-1.7,1.7H4.45a1.71,1.71,0,0,1-1.7-1.7V9.94A1.69,1.69,0,0,1,4.45,8.24Z"/><path class="cls-18" d="M7.75,15.14a4.91,4.91,0,0,1,2.2-2.3,7.4,7.4,0,0,1,6.7,0,5.56,5.56,0,0,1,2.1,2.2,6.15,6.15,0,0,1,.7,3.3,6.57,6.57,0,0,1-.8,3.4,4.91,4.91,0,0,1-2.2,2.3,7,7,0,0,1-6.6,0,5,5,0,0,1-2.1-2.2,7.22,7.22,0,0,1-.8-3.2,8.53,8.53,0,0,1,.8-3.5Zm2.3,5.5a4.43,4.43,0,0,0,1.2,1.5,3.29,3.29,0,0,0,1.9.6,3.61,3.61,0,0,0,2-.6,3.49,3.49,0,0,0,1.2-1.5,5.22,5.22,0,0,0,.4-2.1,5.7,5.7,0,0,0-.4-2.2,3.55,3.55,0,0,0-1.1-1.6,3.61,3.61,0,0,0-2-.6,3.08,3.08,0,0,0-1.9.6,2.89,2.89,0,0,0-1.2,1.5A5.21,5.21,0,0,0,10.05,20.64Z"/><path id="Group" class="cls-19" d="M7.75,15.14a4.91,4.91,0,0,1,2.2-2.3,7.4,7.4,0,0,1,6.7,0,5.56,5.56,0,0,1,2.1,2.2,6.15,6.15,0,0,1,.7,3.3,6.57,6.57,0,0,1-.8,3.4,4.91,4.91,0,0,1-2.2,2.3,7,7,0,0,1-6.6,0,5,5,0,0,1-2.1-2.2,7.22,7.22,0,0,1-.8-3.2,8.53,8.53,0,0,1,.8-3.5Zm2.3,5.5a4.43,4.43,0,0,0,1.2,1.5,3.29,3.29,0,0,0,1.9.6,3.61,3.61,0,0,0,2-.6,3.49,3.49,0,0,0,1.2-1.5,5.22,5.22,0,0,0,.4-2.1,5.7,5.7,0,0,0-.4-2.2,3.55,3.55,0,0,0-1.1-1.6,3.61,3.61,0,0,0-2-.6,3.08,3.08,0,0,0-1.9.6,2.89,2.89,0,0,0-1.2,1.5A5.21,5.21,0,0,0,10.05,20.64Z"/><path class="cls-20" d="M7.75,15.14a4.91,4.91,0,0,1,2.2-2.3,7.4,7.4,0,0,1,6.7,0,5.56,5.56,0,0,1,2.1,2.2,6.15,6.15,0,0,1,.7,3.3,6.57,6.57,0,0,1-.8,3.4,4.91,4.91,0,0,1-2.2,2.3,7,7,0,0,1-6.6,0,5,5,0,0,1-2.1-2.2,7.22,7.22,0,0,1-.8-3.2,8.53,8.53,0,0,1,.8-3.5Zm2.3,5.5a4.43,4.43,0,0,0,1.2,1.5,3.29,3.29,0,0,0,1.9.6,3.61,3.61,0,0,0,2-.6,3.49,3.49,0,0,0,1.2-1.5,5.22,5.22,0,0,0,.4-2.1,5.7,5.7,0,0,0-.4-2.2,3.55,3.55,0,0,0-1.1-1.6,3.61,3.61,0,0,0-2-.6,3.08,3.08,0,0,0-1.9.6,2.89,2.89,0,0,0-1.2,1.5A5.21,5.21,0,0,0,10.05,20.64Z"/><path class="cls-20" d="M7.75,15.14a4.91,4.91,0,0,1,2.2-2.3,7.4,7.4,0,0,1,6.7,0,5.56,5.56,0,0,1,2.1,2.2,6.15,6.15,0,0,1,.7,3.3,6.57,6.57,0,0,1-.8,3.4,4.91,4.91,0,0,1-2.2,2.3,7,7,0,0,1-6.6,0,5,5,0,0,1-2.1-2.2,7.22,7.22,0,0,1-.8-3.2,8.53,8.53,0,0,1,.8-3.5Zm2.3,5.5a4.43,4.43,0,0,0,1.2,1.5,3.29,3.29,0,0,0,1.9.6,3.61,3.61,0,0,0,2-.6,3.49,3.49,0,0,0,1.2-1.5,5.22,5.22,0,0,0,.4-2.1,5.7,5.7,0,0,0-.4-2.2,3.55,3.55,0,0,0-1.1-1.6,3.61,3.61,0,0,0-2-.6,3.08,3.08,0,0,0-1.9.6,2.89,2.89,0,0,0-1.2,1.5A5.21,5.21,0,0,0,10.05,20.64Z"/></g></g></svg>