<svg id="Layer_1" data-name="Layer 1" xmlns="http://www.w3.org/2000/svg" xmlns:xlink="http://www.w3.org/1999/xlink" viewBox="0 0 41.89 35.24"><defs><style>.cls-1{fill:#123b6d;}.cls-2{fill:#28a8ea;}.cls-3{fill:#14447d;}.cls-4{fill:#0364b8;}.cls-5{fill:#0664b2;}.cls-6{fill:#0078d4;}.cls-7{fill:#50d9ff;}.cls-8{fill:#0358a7;}.cls-9{fill:url(#linear-gradient);}.cls-10{fill:#0a2767;opacity:0.5;}.cls-10,.cls-12,.cls-13,.cls-14,.cls-15,.cls-16,.cls-17,.cls-19{isolation:isolate;}.cls-11{opacity:0.67;}.cls-12{opacity:0.05;}.cls-13{opacity:0.1;}.cls-14{opacity:0.2;}.cls-15{opacity:0.01;}.cls-16{opacity:0.3;}.cls-17{opacity:0.15;}.cls-18,.cls-19{fill:#fff;}.cls-19{opacity:0.4;}.cls-20{fill:url(#linear-gradient-2);}</style><linearGradient id="linear-gradient" x1="146.28" y1="162.21" x2="145.38" y2="162.79" gradientTransform="translate(-3473.83 -2167.56) scale(24 13.5)" gradientUnits="userSpaceOnUse"><stop offset="0" stop-color="#35b8f1"/><stop offset="0.75" stop-color="#0d64ad"/></linearGradient><linearGradient id="linear-gradient-2" x1="130.24" y1="164.85" x2="130.24" y2="166.16" gradientTransform="translate(-1228.07 -1597.17) scale(9.51 9.77)" gradientUnits="userSpaceOnUse"><stop offset="0" stop-color="#f2f2f2"/><stop offset="1" stop-color="#fff"/></linearGradient></defs><g id="v"><g id="Outlook_32x" data-name="Outlook 32x"><circle id="Oval" class="cls-1" cx="40.76" cy="17.76" r="1.09"/><circle class="cls-1" cx="11.34" cy="17.59" r="1.31"/><path id="Shape" class="cls-1" d="M26.16,17.59H10.9v.73l14.2,7.8.19.1a2,2,0,0,0,1.74,0l.19-.1,14.2-7.8v-.73H26.16"/><path class="cls-1" d="M26.16,17.59H10.9v-.73l14.2-7.8.19-.1A2,2,0,0,1,27,9l.19.1,14.14,7.81v.72H26.16"/><rect id="Rectangle-path" class="cls-2" x="13.12" width="26.11" height="32.61" rx="1.84"/><path class="cls-3" d="M13.12,18.85H23.54v7.86H13.12Z"/><path class="cls-4" d="M22.24,18.85h9.15v7.86H22.24Z"/><path class="cls-5" d="M13.12,11.28h9.12v7.57H13.12Z"/><path class="cls-6" d="M31.39,18.85h7.85v7.86H31.39Zm-9.15-7.57h9.15v7.57H22.24ZM13.12,3.72h9.12v7.56H13.12Z"/><path class="cls-7" d="M31.39,3.72h7.85v7.56H31.39Z"/><path class="cls-8" d="M15,0h22.4a1.91,1.91,0,0,1,1.3.52,1.75,1.75,0,0,1,.54,1.25v2H13.12v-2A1.8,1.8,0,0,1,15,0Z"/><path id="Envelope" class="cls-9" d="M41.42,18.32l-14.2,7.79a1.18,1.18,0,0,1-.19.11,2,2,0,0,1-1.74,0,1.18,1.18,0,0,1-.19-.11L10.92,18.32a.83.83,0,0,1-.43-.73V33.32a1.92,1.92,0,0,0,1.95,1.89H39.89a1.93,1.93,0,0,0,2-1.84V17.59a.83.83,0,0,1-.43.73Z"/><path class="cls-10" d="M26.16,26.42a2,2,0,0,1-.87-.2L11,18.37l.64-1.1S25.63,25,25.9,25.1a.66.66,0,0,0,.55,0l14.3-7.86.61,1.08L27,26.22A2,2,0,0,1,26.16,26.42Z"/><path class="cls-2" d="M12.43,35.24H39.89a2.09,2.09,0,0,0,1.16-.36L25.29,26.22a1.18,1.18,0,0,1-.19-.11L10.92,18.32l-.44-.24V33.32a1.92,1.92,0,0,0,1.92,1.92Z"/><g id="dropshadow" class="cls-11"><path class="cls-12" d="M22.49,7.5H11.9a.57.57,0,0,0-.08.28V27.41a.66.66,0,0,0,.66.64h9.11a1.29,1.29,0,0,0,1.31-1.27h0V8.41A1.21,1.21,0,0,0,22.49,7.5Z"/><path class="cls-13" d="M19.19,10.46H10.47V30.7h8.72a1.69,1.69,0,0,0,1.74-1.63v-17A1.69,1.69,0,0,0,19.19,10.46Z"/><path class="cls-14" d="M19.19,9.32H10.47V29.53h8.72a1.68,1.68,0,0,0,1.74-1.62v-17A1.69,1.69,0,0,0,19.19,9.32Z"/><path class="cls-13" d="M21.07,7.54H12a.65.65,0,0,0-.66.63V27.81a.64.64,0,0,0,.66.63h9.11a1.29,1.29,0,0,0,1.29-1.26V8.8A1.29,1.29,0,0,0,21.07,7.54Z"/><path class="cls-13" d="M21.05,8.06H11.94a.65.65,0,0,0-.66.63V28.13a.64.64,0,0,0,.66.63l9,.15a1.56,1.56,0,0,0,1.42-1.41V9.32A1.29,1.29,0,0,0,21.05,8.06Z"/><path class="cls-15" d="M10.47,7.5V23.06h-.11v2.58a.64.64,0,0,0,.65.63h0L18.25,25c.72,0,2.66-.6,2.66-1.3V7.84a1.28,1.28,0,0,0-.07-.34Z"/><path class="cls-14" d="M19.19,9.85H10.47V30.09h8.72a1.69,1.69,0,0,0,1.74-1.63v-17A1.69,1.69,0,0,0,19.19,9.85Z"/><path class="cls-16" d="M19.19,8.07H10.47V27.89h8.72a1.7,1.7,0,0,0,1.74-1.63V9.7A1.7,1.7,0,0,0,19.19,8.07Z"/><path class="cls-16" d="M19.19,8.07H10.47V27.79h8.72a1.69,1.69,0,0,0,1.74-1.63V9.7A1.7,1.7,0,0,0,19.19,8.07Z"/><path class="cls-16" d="M19.19,8.48H10.47V28.72h8.72a1.7,1.7,0,0,0,1.74-1.63v-17A1.69,1.69,0,0,0,19.19,8.48Z"/><path class="cls-14" d="M19.19,8.86H10.47V29.1h8.72a1.69,1.69,0,0,0,1.74-1.63v-17A1.69,1.69,0,0,0,19.19,8.86Z"/><path class="cls-13" d="M20.83,8.64H11.72a.64.64,0,0,0-.65.63h0V27.71a.64.64,0,0,0,.65.63h9.11a1.28,1.28,0,0,0,1.31-1.25h0V9.9A1.29,1.29,0,0,0,20.83,8.64Z"/><path class="cls-14" d="M19.83,8.64H10.71a.69.69,0,0,0-.24,0V27.88a.49.49,0,0,0,.24,0h9.12a1.28,1.28,0,0,0,1.3-1.26h0V9.9a1.28,1.28,0,0,0-1.3-1.26Z"/><path class="cls-16" d="M17.54,7.55H10.9a.64.64,0,0,0-.65.63h0V26.62a.64.64,0,0,0,.65.63H20A1.28,1.28,0,0,0,21.36,26V9.37c0-.75-1.77-1.16-2-1.38A4,4,0,0,0,17.54,7.55Z"/><path class="cls-13" d="M20.36,9.55H11.28a.64.64,0,0,0-.65.63h0V28.62a.64.64,0,0,0,.65.63h9.08A1.29,1.29,0,0,0,21.67,28V10.81A1.29,1.29,0,0,0,20.36,9.55Z"/><path class="cls-13" d="M19.58,6.93h-6.5v5.61H10.47V23.41h-.11V26a.64.64,0,0,0,.65.63h0l7.22-1.31c.72,0,2.66-.61,2.66-1.3V8.19A1.29,1.29,0,0,0,19.58,6.93Z"/><path class="cls-17" d="M19.58,7.24h-6.5v5.3H10.47V23.73h-.11v2.59A.64.64,0,0,0,11,27h0l7.24-1.28c.72,0,2.66-.6,2.66-1.3V8.51A1.29,1.29,0,0,0,19.6,7.24Z"/></g><path id="Back_Plate" data-name="Back Plate" class="cls-6" d="M1.75,7.5H19.19a1.72,1.72,0,0,1,1.74,1.68h0V26a1.6,1.6,0,0,1-.51,1.18,1.77,1.77,0,0,1-1.23.5H1.75a1.77,1.77,0,0,1-1.23-.5A1.6,1.6,0,0,1,0,26V9.18A1.71,1.71,0,0,1,1.75,7.5Z"/><path class="cls-18" d="M5,14.44a5.4,5.4,0,0,1,2.17-2.32,6.83,6.83,0,0,1,3.46-.8,6.29,6.29,0,0,1,3.2.8A5.41,5.41,0,0,1,16,14.32a7,7,0,0,1,.74,3.26A7.34,7.34,0,0,1,15.94,21a5.41,5.41,0,0,1-2.18,2.29,7.17,7.17,0,0,1-6.59,0A5.51,5.51,0,0,1,5,21.06a6.81,6.81,0,0,1-.75-3.22A7.45,7.45,0,0,1,5,14.46Zm2.34,5.44A3.42,3.42,0,0,0,8.58,21.4a3.24,3.24,0,0,0,1.91.56,3.38,3.38,0,0,0,2-.57,3.27,3.27,0,0,0,1.19-1.53,5.73,5.73,0,0,0,.38-2.13,6.09,6.09,0,0,0-.36-2.16A3.35,3.35,0,0,0,12.56,14a3.32,3.32,0,0,0-2-.6,3.39,3.39,0,0,0-2,.56,3.53,3.53,0,0,0-1.25,1.53A5.87,5.87,0,0,0,7.36,19.88Z"/><path id="Group" class="cls-19" d="M5,14.44a5.4,5.4,0,0,1,2.17-2.32,6.83,6.83,0,0,1,3.46-.8,6.29,6.29,0,0,1,3.2.8A5.41,5.41,0,0,1,16,14.32a7,7,0,0,1,.74,3.26A7.34,7.34,0,0,1,15.94,21a5.41,5.41,0,0,1-2.18,2.29,7.17,7.17,0,0,1-6.59,0A5.51,5.51,0,0,1,5,21.06a6.81,6.81,0,0,1-.75-3.22A7.45,7.45,0,0,1,5,14.46Zm2.34,5.44A3.42,3.42,0,0,0,8.58,21.4a3.24,3.24,0,0,0,1.91.56,3.38,3.38,0,0,0,2-.57,3.27,3.27,0,0,0,1.19-1.53,5.73,5.73,0,0,0,.38-2.13,6.09,6.09,0,0,0-.36-2.16A3.35,3.35,0,0,0,12.56,14a3.32,3.32,0,0,0-2-.6,3.39,3.39,0,0,0-2,.56,3.53,3.53,0,0,0-1.25,1.53A5.87,5.87,0,0,0,7.36,19.88Z"/><path class="cls-20" d="M5,14.44a5.4,5.4,0,0,1,2.17-2.32,6.83,6.83,0,0,1,3.46-.8,6.29,6.29,0,0,1,3.2.8A5.41,5.41,0,0,1,16,14.32a7,7,0,0,1,.74,3.26A7.34,7.34,0,0,1,15.94,21a5.41,5.41,0,0,1-2.18,2.29,7.17,7.17,0,0,1-6.59,0A5.51,5.51,0,0,1,5,21.06a6.81,6.81,0,0,1-.75-3.22A7.45,7.45,0,0,1,5,14.46Zm2.34,5.44A3.42,3.42,0,0,0,8.58,21.4a3.24,3.24,0,0,0,1.91.56,3.38,3.38,0,0,0,2-.57,3.27,3.27,0,0,0,1.19-1.53,5.73,5.73,0,0,0,.38-2.13,6.09,6.09,0,0,0-.36-2.16A3.35,3.35,0,0,0,12.56,14a3.32,3.32,0,0,0-2-.6,3.39,3.39,0,0,0-2,.56,3.53,3.53,0,0,0-1.25,1.53A5.87,5.87,0,0,0,7.36,19.88Z"/><path class="cls-20" d="M5,14.44a5.4,5.4,0,0,1,2.17-2.32,6.83,6.83,0,0,1,3.46-.8,6.29,6.29,0,0,1,3.2.8A5.41,5.41,0,0,1,16,14.32a7,7,0,0,1,.74,3.26A7.34,7.34,0,0,1,15.94,21a5.41,5.41,0,0,1-2.18,2.29,7.17,7.17,0,0,1-6.59,0A5.51,5.51,0,0,1,5,21.06a6.81,6.81,0,0,1-.75-3.22A7.45,7.45,0,0,1,5,14.46Zm2.34,5.44A3.42,3.42,0,0,0,8.58,21.4a3.24,3.24,0,0,0,1.91.56,3.38,3.38,0,0,0,2-.57,3.27,3.27,0,0,0,1.19-1.53,5.73,5.73,0,0,0,.38-2.13,6.09,6.09,0,0,0-.36-2.16A3.35,3.35,0,0,0,12.56,14a3.32,3.32,0,0,0-2-.6,3.39,3.39,0,0,0-2,.56,3.53,3.53,0,0,0-1.25,1.53A5.87,5.87,0,0,0,7.36,19.88Z"/></g></g></svg>