<svg id="Layer_1" data-name="Layer 1" xmlns="http://www.w3.org/2000/svg" viewBox="0 0 39.44 34.5"><defs><style>.cls-1{fill:#fff;}.cls-2{fill:#d35230;}.cls-3{fill:#ed6c47;}.cls-4{fill:#ff8f6b;}.cls-5{opacity:0.67;}.cls-6{opacity:0.05;}.cls-10,.cls-11,.cls-6,.cls-7,.cls-8,.cls-9{isolation:isolate;}.cls-7{opacity:0.1;}.cls-8{opacity:0.2;}.cls-9{opacity:0.01;}.cls-10{opacity:0.3;}.cls-11{opacity:0.15;}.cls-12{fill:#c43e1c;}.cls-13{fill:#f9f7f7;}</style></defs><path id="_2" data-name=" 2" class="cls-1" d="M15.57,12.21a5.94,5.94,0,0,1-.21,1.57,4.68,4.68,0,0,1-1.6,2.52,4.77,4.77,0,0,1-1.39.78,5,5,0,0,1-1.42.28l-1.45.09v4.77L5.93,21.8V7.69l2.5-.18c.85-.06,1.66-.09,2.51-.09a4.52,4.52,0,0,1,3.49,1.26,5,5,0,0,1,1.14,3.53ZM16.7,3.46H32.87V26.11H16.72Z"/><g id="Powerpoint_32x" data-name="Powerpoint 32x"><path id="Circle" class="cls-2" d="M22.18,0A17.24,17.24,0,0,1,39.44,17.22v0A17.25,17.25,0,0,1,22.2,34.5h0A17.25,17.25,0,0,1,4.94,17.25h0A17.25,17.25,0,0,1,22.18,0Z"/><path id="Path-145" class="cls-3" d="M22.18,0A17.28,17.28,0,0,0,4.93,17.25H22.18Z"/><path id="Path-146" class="cls-4" d="M22.18,0A17.29,17.29,0,0,1,39.44,17.25H22.18Z"/><g id="dropshadow-7" class="cls-5"><path id="Path-147" class="cls-6" d="M8.27,27.47H20.21a1.27,1.27,0,0,0,1.36-1.18v-18A1.27,1.27,0,0,0,20.26,7h-12a17.19,17.19,0,0,0-3,6.79v6.86a17.22,17.22,0,0,0,3.06,6.86Z"/><path id="Path-148" class="cls-7" d="M10.68,30.06h7.18c1,0,1.72-2.07,1.72-3V11.87a1.72,1.72,0,0,0-1.72-1.59H6.42a17.13,17.13,0,0,0,4.29,19.78Z"/><path id="Path-149" class="cls-8" d="M9.57,28.92h8.34a1.71,1.71,0,0,0,1.66-1.58V10.73a1.72,1.72,0,0,0-1.72-1.59H7A17.13,17.13,0,0,0,9.57,28.92Z"/><path id="Path-150" class="cls-7" d="M8.62,27.86H19.76a1.29,1.29,0,0,0,1.32-1.23v-18a1.29,1.29,0,0,0-1.31-1.26H8a17.11,17.11,0,0,0,.59,20.49Z"/><path id="Path-151" class="cls-7" d="M8.57,28.18H19.45c.73,0,1.31-1.61,1.31-2.3V9.17a1.27,1.27,0,0,0-1.31-1.23h-12A17.16,17.16,0,0,0,8.57,28.18Z"/><path id="Path-152" class="cls-9" d="M7,25.48l9.88-1c.72,0,2.66-.59,2.66-1.27V7.72a1.28,1.28,0,0,0-1.31-1.24H8.74A17.14,17.14,0,0,0,7,25.48Z"/><path id="Path-153" class="cls-8" d="M10,29.47h7.83a1.72,1.72,0,0,0,1.71-1.58V11.25a1.72,1.72,0,0,0-1.72-1.59H6.71A17.12,17.12,0,0,0,10,29.45Z"/><path id="Path-154" class="cls-10" d="M8.21,27.32h9.65a1.72,1.72,0,0,0,1.71-1.59V9.53A1.72,1.72,0,0,0,17.85,8H7.72a17.05,17.05,0,0,0,.52,19.37Z"/><path id="Path-155" class="cls-10" d="M8.14,27.23h9.72a1.73,1.73,0,0,0,1.72-1.6V9.53A1.72,1.72,0,0,0,17.86,8H7.72a17.06,17.06,0,0,0,.44,19.28Z"/><path id="Path-156" class="cls-10" d="M8.82,28.13h9a1.72,1.72,0,0,0,1.75-1.59V9.94a1.73,1.73,0,0,0-1.72-1.6H7.44A17.14,17.14,0,0,0,8.82,28.13Z"/><path id="Path-157" class="cls-8" d="M9.15,28.5h8.71a1.71,1.71,0,0,0,1.71-1.58V10.31a1.72,1.72,0,0,0-1.72-1.59H7.22A17.07,17.07,0,0,0,9.15,28.5Z"/><path id="Path-158" class="cls-7" d="M8.29,27.8h11c.73,0,1.31-1.2,1.31-1.88V9.8a1.27,1.27,0,0,0-1.31-1.23H7.1A17,17,0,0,0,8.29,27.8Z"/><path id="Path-159" class="cls-8" d="M8.24,27.35H18.57a1.26,1.26,0,0,0,1.31-1.21h0V9.74a1.27,1.27,0,0,0-1.31-1.23H7.38a17,17,0,0,0,.86,18.84Z"/><path id="Path-160" class="cls-10" d="M7.78,26.69H18.69A1.27,1.27,0,0,0,20,25.46h0V9.17c0-.73-1.77-1.14-2-1.35a4.13,4.13,0,0,0-1.82-.43H8A17.15,17.15,0,0,0,7.78,26.69Z"/><path id="Path-161" class="cls-7" d="M9.28,28.65h9.8a1.27,1.27,0,0,0,1.3-1.24h0V10.62A1.26,1.26,0,0,0,19.09,9.4H6.86A17.07,17.07,0,0,0,9.28,28.65Z"/><path id="Path-162" class="cls-7" d="M7.23,25.8l9.68-1c.72,0,2.66-.59,2.66-1.27V8.07A1.28,1.28,0,0,0,18.28,6.8H8.48A17.07,17.07,0,0,0,7.23,25.8Z"/><path id="Path-163" class="cls-11" d="M7.41,26.09l9.5-1c.72,0,2.66-.59,2.66-1.27v-14c0-.69-1.23-2.72-2.58-2.72H8.25a17,17,0,0,0-.86,19Z"/></g><path id="Back_Plate-7" data-name="Back Plate-7" class="cls-12" d="M1.64,7.39H18.07A1.65,1.65,0,0,1,19.72,9V25.47a1.63,1.63,0,0,1-1.64,1.64H1.64A1.63,1.63,0,0,1,0,25.49V9A1.63,1.63,0,0,1,1.63,7.39Z"/><path id="Shape-5" class="cls-13" d="M9.9,11.09a5.14,5.14,0,0,1,3.43,1A3.59,3.59,0,0,1,14.51,15a3.4,3.4,0,0,1-.59,2,4,4,0,0,1-1.65,1.46,5.63,5.63,0,0,1-2.49.52H7.42V23.4H5V11.09ZM7.39,16.86H9.47a2.77,2.77,0,0,0,1.84-.55,1.38,1.38,0,0,0,.62-1.26c0-1.37-.79-2-2.38-2H7.39Z"/></g></svg>