<svg id="Layer_1" data-name="Layer 1" xmlns="http://www.w3.org/2000/svg" viewBox="0 0 39.45 39.44"><defs><style>.cls-1{fill:#d8d8d8;fill-opacity:0;}.cls-2{fill:#036c70;}.cls-3{fill:#1a9ba1;}.cls-4{fill:#37c6d0;}.cls-5{opacity:0.67;}.cls-6{opacity:0.05;}.cls-10,.cls-11,.cls-6,.cls-7,.cls-8,.cls-9{isolation:isolate;}.cls-7{opacity:0.1;}.cls-8{opacity:0.2;}.cls-9{opacity:0.01;}.cls-10{opacity:0.3;}.cls-11{opacity:0.15;}.cls-12{fill:#03787c;}.cls-13{fill:#fff;}</style></defs><path id="Rectangle-32" class="cls-1" d="M.43-2.15H39V36.44H.43Z"/><g id="icon-app-SharePoint-32px"><g id="Sharepoint_32" data-name="Sharepoint 32"><circle id="Oval-3" class="cls-2" cx="18.49" cy="11.71" r="11.71"/><circle id="Oval-4" class="cls-3" cx="29.43" cy="22.03" r="10.02"/><circle id="Oval-5" class="cls-4" cx="19.72" cy="31.43" r="8.01"/><g id="dropshadow-8" class="cls-5"><path id="Path-164" class="cls-6" d="M20.35,9.51H8.06a.61.61,0,0,0-.62.6h0v5.44a11.7,11.7,0,0,0,11,7.85,6.57,6.57,0,0,0,1,0v.06A8,8,0,0,0,11.79,30h8.5c.67,0,1.22-1.35,1.22-2.83V10.74A1.22,1.22,0,0,0,20.35,9.51Z"/><path id="Path-165" class="cls-7" d="M18.08,12.74H6.86A11.69,11.69,0,0,0,18.51,23.41a6.44,6.44,0,0,0,1-.05v.06a8,8,0,0,0-7.8,8.11,4.18,4.18,0,0,0,.08,1h6.29A1.64,1.64,0,0,0,19.79,31V14.33a1.64,1.64,0,0,0-1.67-1.59Z"/><path id="Path-166" class="cls-8" d="M18.08,11.6H6.79v.11a11.7,11.7,0,0,0,11.7,11.7h0a6.57,6.57,0,0,0,1-.05v.06a8,8,0,0,0-7.82,8h6.37a1.62,1.62,0,0,0,1.64-1.59V13.19A1.62,1.62,0,0,0,18.08,11.6Z"/><path id="Path-167" class="cls-7" d="M19.86,9.89H7.57a.62.62,0,0,0-.62.62v3.13a11.69,11.69,0,0,0,11.54,9.77,6.57,6.57,0,0,0,1-.05v.06a8,8,0,0,0-7.72,6.9h8.07a1.22,1.22,0,0,0,1.22-1.22h0V11.14a1.23,1.23,0,0,0-1.21-1.25h0Z"/><path id="Path-168" class="cls-7" d="M19.79,10.4H7.55a.61.61,0,0,0-.61.61h0v2.5A11.69,11.69,0,0,0,18.49,23.4a6.57,6.57,0,0,0,1,0v.06a8,8,0,0,0-7.78,7.22h8.08A1.23,1.23,0,0,0,21,29.4V11.64A1.24,1.24,0,0,0,19.8,10.4Z"/><path id="Path-169" class="cls-9" d="M7.12,9a11.68,11.68,0,0,0,8.57,14.13,11.54,11.54,0,0,0,2.8.34,6.57,6.57,0,0,0,1-.05v.06a8,8,0,0,0-6.77,4.06L17.15,27c.67,0,2.5-.59,2.5-1.27V10.19A1.26,1.26,0,0,0,18.41,9Z"/><path id="Path-170" class="cls-8" d="M18.08,12.15H6.79A11.7,11.7,0,0,0,18.48,23.41a6.57,6.57,0,0,0,1-.05v.06a8,8,0,0,0-7.82,8V32H18a1.62,1.62,0,0,0,1.68-1.56h0V13.71a1.62,1.62,0,0,0-1.6-1.56Z"/><path id="Path-171" class="cls-10" d="M18.08,10.41H6.86a11.69,11.69,0,0,0,10.3,12.93,11.9,11.9,0,0,0,1.34.07,6.57,6.57,0,0,0,1-.05v.06a8,8,0,0,0-7.65,6.36h6.2a1.61,1.61,0,0,0,1.64-1.58h0V12a1.62,1.62,0,0,0-1.61-1.59Z"/><path id="Path-172" class="cls-10" d="M18.08,10.41H6.86a11.69,11.69,0,0,0,10.3,12.93,11.9,11.9,0,0,0,1.34.07,6.57,6.57,0,0,0,1-.05v.06a8,8,0,0,0-7.63,6.27h6.18a1.63,1.63,0,0,0,1.64-1.6V12a1.62,1.62,0,0,0-1.61-1.59Z"/><path id="Path-173" class="cls-10" d="M18.08,10.81H6.86v.85A11.7,11.7,0,0,0,18.55,23.37h1v.06a8,8,0,0,0-7.77,7.12h6.32A1.63,1.63,0,0,0,19.79,29V12.4a1.62,1.62,0,0,0-1.65-1.59h-.06Z"/><path id="Path-174" class="cls-8" d="M18.08,11.18H6.79v.53a11.7,11.7,0,0,0,11.7,11.7,6.44,6.44,0,0,0,1-.05v.06A8,8,0,0,0,11.79,31h6.34a1.63,1.63,0,0,0,1.65-1.59V12.77a1.62,1.62,0,0,0-1.65-1.59h-.05Z"/><path id="Path-175" class="cls-7" d="M19.64,11H7.35a.61.61,0,0,0-.55.34v.4a11.7,11.7,0,0,0,11.7,11.7,6.44,6.44,0,0,0,1-.05v.06a8,8,0,0,0-7.71,6.81h7.83a4.8,4.8,0,0,0,1.22-3.12V12.2A1.23,1.23,0,0,0,19.61,11Z"/><path id="Path-176" class="cls-8" d="M18.68,11H6.86v.74a11.7,11.7,0,0,0,11.7,11.7,6.44,6.44,0,0,0,1-.05v.06a8,8,0,0,0-7.65,6.4h6.88A1.23,1.23,0,0,0,20,28.57V12.2A1.23,1.23,0,0,0,18.81,11h-.13Z"/><path id="Path-177" class="cls-10" d="M18.24,10.33a3.68,3.68,0,0,0-1.72-.43H6.93a11.63,11.63,0,0,0,9.59,13.36h0a11.16,11.16,0,0,0,2,.15,6.57,6.57,0,0,0,1-.05v.06A8,8,0,0,0,12,29.15h6.86A1.24,1.24,0,0,0,20.09,28V11.63c0-.68-1.66-1.08-1.85-1.3Z"/><path id="Path-178" class="cls-7" d="M19.23,11.86H6.79a11.69,11.69,0,0,0,11.7,11.53,8.39,8.39,0,0,0,1-.06v.06a8,8,0,0,0-7.81,7.72h7.51a1.22,1.22,0,0,0,1.22-1.22h0V13.09a1.23,1.23,0,0,0-1.22-1.23Z"/><path id="Path-179" class="cls-7" d="M7,9.3a11.7,11.7,0,0,0,9,13.86,11.47,11.47,0,0,0,2.41.25,6.57,6.57,0,0,0,1-.05v.06a8,8,0,0,0-7,4.42l4.63-.54c.67,0,2.5-.6,2.5-1.27V10.53A1.23,1.23,0,0,0,18.34,9.3H7Z"/><path id="Path-180" class="cls-11" d="M7,9.6a11.66,11.66,0,0,0,9.31,13.61h0a11.51,11.51,0,0,0,2.19.2,6.57,6.57,0,0,0,1-.05v.06a8,8,0,0,0-7.12,4.75l4.78-.57c.67,0,2.5-.59,2.5-1.26V10.84A1.25,1.25,0,0,0,18.41,9.6H7Z"/></g><path id="Back_Plate-8" data-name="Back Plate-8" class="cls-12" d="M1.65,9.85H18.08a1.63,1.63,0,0,1,1.64,1.64h0V28a1.63,1.63,0,0,1-1.63,1.65H1.65A1.65,1.65,0,0,1,0,28V11.5A1.65,1.65,0,0,1,1.65,9.85Z"/><path id="Path-181" class="cls-13" d="M7.61,19.61a3.4,3.4,0,0,1-1-1,3,3,0,0,1-.34-1.43,2.78,2.78,0,0,1,.64-1.85,3.82,3.82,0,0,1,1.71-1.11,7.3,7.3,0,0,1,2.32-.36,9,9,0,0,1,3.05.43v2.16a4.61,4.61,0,0,0-1.38-.56,6.76,6.76,0,0,0-1.61-.2A3.55,3.55,0,0,0,9.34,16a1.12,1.12,0,0,0-.66,1,1,1,0,0,0,.28.7,3,3,0,0,0,.74.54c.32.15.8.36,1.42.62l.2.08a11.67,11.67,0,0,1,1.78.86,2.86,2.86,0,0,1,1.43,2.66,3,3,0,0,1-.6,1.92,3.3,3.3,0,0,1-1.6,1.07,7.37,7.37,0,0,1-2.28.34A11.86,11.86,0,0,1,8,25.65a7.33,7.33,0,0,1-1.72-.48V22.89A5.43,5.43,0,0,0,8,23.7a6.64,6.64,0,0,0,1.87.3,3.28,3.28,0,0,0,1.71-.36,1.15,1.15,0,0,0,.58-1,1.09,1.09,0,0,0-.33-.78,3,3,0,0,0-.85-.61c-.38-.19-.94-.44-1.67-.75a9.09,9.09,0,0,1-1.69-.89Z"/></g></g></svg>