<svg id="Layer_1" data-name="Layer 1" xmlns="http://www.w3.org/2000/svg" viewBox="0 0 53.4 41.04"><defs><style>.cls-1{fill:#036c70;}.cls-2{fill:#1a9ba1;}.cls-3{fill:#37c6d0;}.cls-4{opacity:0.67;}.cls-5{opacity:0.05;}.cls-10,.cls-5,.cls-6,.cls-7,.cls-8,.cls-9{isolation:isolate;}.cls-6{opacity:0.1;}.cls-7{opacity:0.2;}.cls-8{opacity:0.01;}.cls-9{opacity:0.3;}.cls-10{opacity:0.15;}.cls-11{fill:#03787c;}.cls-12{fill:#fff;}</style></defs><g id="icon-app-SharePoint-32px"><g id="Sharepoint_32" data-name="Sharepoint 32"><circle id="Oval-3" class="cls-1" cx="25.4" cy="12.52" r="11.7"/><circle id="Oval-4" class="cls-2" cx="36.4" cy="22.82" r="10"/><circle id="Oval-5" class="cls-3" cx="26.6" cy="32.22" r="8"/><g id="dropshadow-8" class="cls-4"><path id="Path-164" class="cls-5" d="M27.3,10.32H15a.65.65,0,0,0-.6.6h0v5.4a11.76,11.76,0,0,0,11,7.9,3.4,3.4,0,0,0,1-.1v.1a8,8,0,0,0-7.7,6.5h8.5c.7,0,1.2-1.4,1.2-2.8V11.52A1.2,1.2,0,0,0,27.3,10.32Z"/><path id="Path-165" class="cls-6" d="M25,13.52H13.8a11.73,11.73,0,0,0,11.6,10.7,3.08,3.08,0,0,0,1-.1v.1a7.94,7.94,0,0,0-7.8,8.1,3.4,3.4,0,0,0,.1,1H25a1.59,1.59,0,0,0,1.7-1.5h0V15.12a1.67,1.67,0,0,0-1.7-1.6Z"/><path id="Path-166" class="cls-7" d="M25,12.42H13.7v.1a11.65,11.65,0,0,0,11.7,11.7h0a3.4,3.4,0,0,0,1-.1v.1a8.05,8.05,0,0,0-7.8,8H25a1.58,1.58,0,0,0,1.6-1.6V14A1.58,1.58,0,0,0,25,12.42Z"/><path id="Path-167" class="cls-6" d="M26.8,10.72H14.5a.65.65,0,0,0-.6.6v3.1a11.7,11.7,0,0,0,11.5,9.8,3.4,3.4,0,0,0,1-.1v.1a7.94,7.94,0,0,0-7.7,6.9h8.1a1.16,1.16,0,0,0,1.2-1.2h0v-18a1.22,1.22,0,0,0-1.2-1.2Z"/><path id="Path-168" class="cls-6" d="M26.7,11.22H14.5a.65.65,0,0,0-.6.6h0v2.5a11.72,11.72,0,0,0,11.6,9.9,3.4,3.4,0,0,0,1-.1v.1a8.07,8.07,0,0,0-7.8,7.2h8.1a1.22,1.22,0,0,0,1.2-1.2V12.42a1.3,1.3,0,0,0-1.3-1.2Z"/><path id="Path-169" class="cls-8" d="M14,9.72a11.64,11.64,0,0,0,8.6,14.1,13.33,13.33,0,0,0,2.8.3,3.4,3.4,0,0,0,1-.1v.1a8.09,8.09,0,0,0-6.8,4.1l4.5-.5c.7,0,2.5-.6,2.5-1.3V11a1.22,1.22,0,0,0-1.2-1.2Z"/><path id="Path-170" class="cls-7" d="M25,12.92H13.7a11.7,11.7,0,0,0,11.7,11.3,3.4,3.4,0,0,0,1-.1v.1a8.05,8.05,0,0,0-7.8,8v.5h6.3a1.73,1.73,0,0,0,1.7-1.6h0V14.52a1.58,1.58,0,0,0-1.6-1.6Z"/><path id="Path-171" class="cls-9" d="M25,11.22H13.8a11.68,11.68,0,0,0,10.3,12.9c.4,0,.9.1,1.3.1a3.4,3.4,0,0,0,1-.1v.1a7.9,7.9,0,0,0-7.6,6.4H25A1.58,1.58,0,0,0,26.6,29h0V12.82a1.58,1.58,0,0,0-1.6-1.6Z"/><path id="Path-172" class="cls-9" d="M25,11.22H13.8a11.68,11.68,0,0,0,10.3,12.9c.4,0,.9.1,1.3.1a3.4,3.4,0,0,0,1-.1v.1a8,8,0,0,0-7.6,6.3H25a1.58,1.58,0,0,0,1.6-1.6V12.82a1.58,1.58,0,0,0-1.6-1.6Z"/><path id="Path-173" class="cls-9" d="M25,11.62H13.8v.9a11.65,11.65,0,0,0,11.7,11.7h1v.1a8.06,8.06,0,0,0-7.8,7.1H25a1.67,1.67,0,0,0,1.7-1.6h0V13.22a1.61,1.61,0,0,0-1.7-1.6Z"/><path id="Path-174" class="cls-7" d="M25,11.92H13.7v.5a11.65,11.65,0,0,0,11.7,11.7,3.08,3.08,0,0,0,1-.1v.1a7.94,7.94,0,0,0-7.7,7.5H25A1.58,1.58,0,0,0,26.6,30V13.52a1.52,1.52,0,0,0-1.6-1.6Z"/><path id="Path-175" class="cls-6" d="M26.6,11.72H14.3a.86.86,0,0,0-.6.3v.4a11.65,11.65,0,0,0,11.7,11.7,3.08,3.08,0,0,0,1-.1v.1a8,8,0,0,0-7.7,6.8h7.8a4.65,4.65,0,0,0,1.2-3.1V13a1.16,1.16,0,0,0-1.1-1.3Z"/><path id="Path-176" class="cls-7" d="M25.6,11.72H13.8v.7a11.65,11.65,0,0,0,11.7,11.7,3.08,3.08,0,0,0,1-.1v.1a7.9,7.9,0,0,0-7.6,6.4h6.9a1.22,1.22,0,0,0,1.2-1.2V13a1.16,1.16,0,0,0-1.2-1.2h-.2Z"/><path id="Path-177" class="cls-9" d="M25.2,11.12a3.29,3.29,0,0,0-1.7-.4H13.9a11.79,11.79,0,0,0,9.6,13.4h0a6.73,6.73,0,0,0,2,.1,3.4,3.4,0,0,0,1-.1v.1a8,8,0,0,0-7.5,5.7h6.9a1.16,1.16,0,0,0,1.2-1.2V12.42c-.1-.7-1.7-1.1-1.9-1.3Z"/><path id="Path-178" class="cls-6" d="M26.2,12.62H13.8a11.67,11.67,0,0,0,11.7,11.5,3.4,3.4,0,0,0,1-.1v.1a8,8,0,0,0-7.8,7.7h7.5a1.16,1.16,0,0,0,1.2-1.2h0V13.92a1.39,1.39,0,0,0-1.2-1.3Z"/><path id="Path-179" class="cls-6" d="M14,10.12A11.8,11.8,0,0,0,23,24a6.52,6.52,0,0,0,2.4.2,3.4,3.4,0,0,0,1-.1v.1a8.11,8.11,0,0,0-7,4.4l4.6-.5c.7,0,2.5-.6,2.5-1.3V11.32a1.22,1.22,0,0,0-1.2-1.2H14Z"/><path id="Path-180" class="cls-10" d="M13.9,10.42A11.68,11.68,0,0,0,23.2,24h0a16.35,16.35,0,0,0,2.2.2,3.4,3.4,0,0,0,1-.1v.1A7.87,7.87,0,0,0,19.3,29l4.8-.6c.7,0,2.5-.6,2.5-1.3V11.62a1.22,1.22,0,0,0-1.2-1.2H13.9Z"/></g><path id="Back_Plate-8" data-name="Back Plate-8" class="cls-11" d="M8.6,10.62H25a1.58,1.58,0,0,1,1.6,1.6h0v16.5a1.58,1.58,0,0,1-1.6,1.6H8.6A1.58,1.58,0,0,1,7,28.72V12.32a1.6,1.6,0,0,1,1.6-1.7Z"/><path id="Path-181" class="cls-12" d="M14.5,20.42a4.74,4.74,0,0,1-1-1,3.19,3.19,0,0,1-.3-1.4,3.29,3.29,0,0,1,.6-1.9A3.86,3.86,0,0,1,15.5,15a8.52,8.52,0,0,1,2.3-.4,11,11,0,0,1,3.1.4v2.2a3.51,3.51,0,0,0-1.4-.6,8.75,8.75,0,0,0-1.6-.2,3.53,3.53,0,0,0-1.7.4,1.2,1.2,0,0,0-.7,1,.91.91,0,0,0,.3.7,3,3,0,0,0,.7.5c.3.1.8.4,1.4.6l.2.1a7.57,7.57,0,0,1,1.8.9,2.87,2.87,0,0,1,1.4,2.7,3.08,3.08,0,0,1-.6,1.9,3.55,3.55,0,0,1-1.6,1.1,8.52,8.52,0,0,1-2.3.3,14.92,14.92,0,0,1-2.1-.2,8.45,8.45,0,0,1-1.7-.5v-2.2a5.31,5.31,0,0,0,1.7.8,5.82,5.82,0,0,0,1.9.3,3.29,3.29,0,0,0,1.7-.4,1.1,1.1,0,0,0,.6-1,1.14,1.14,0,0,0-.3-.8,2,2,0,0,0-.9-.6c-.4-.2-.9-.4-1.7-.8-.4-.2-.9-.5-1.5-.8Z"/></g></g></svg>