<svg id="Layer_1" data-name="Layer 1" xmlns="http://www.w3.org/2000/svg" viewBox="0 0 38.57 36.15"><defs><style>.cls-1{fill:#5059c9;}.cls-2{fill:#7b83eb;}.cls-3{fill:none;}.cls-4{opacity:0.67;}.cls-5{opacity:0.1;}.cls-5,.cls-6,.cls-7,.cls-8,.cls-9{isolation:isolate;}.cls-6{opacity:0.2;}.cls-7{opacity:0.01;}.cls-8{opacity:0.3;}.cls-9{opacity:0.15;}.cls-10{fill:#4b53bc;}.cls-11{fill:#fff;}</style></defs><g id="Teams_32x" data-name="Teams 32x"><path id="Path-89" class="cls-1" d="M36.77,13.22H27.34c-1,0-.77.85-.77,1.85v9.17a6,6,0,1,0,12,0V15.07a1.81,1.81,0,0,0-1.79-1.85Z"/><ellipse id="Head" class="cls-1" cx="32.55" cy="7.39" rx="4.02" ry="4.11"/><path id="Body" class="cls-2" d="M12.26,13.22H27.93a1.83,1.83,0,0,1,1.81,1.85h0V26.29a9.75,9.75,0,0,1-9.65,9.86,9.75,9.75,0,0,1-9.64-9.85V15.07a1.81,1.81,0,0,1,1.79-1.85h0Z"/><ellipse id="Head-2" class="cls-2" cx="20.09" cy="5.75" rx="5.63" ry="5.75"/><ellipse id="Head-3" class="cls-3" cx="32.55" cy="7.39" rx="4.02" ry="4.11"/><g id="dropshadow-5" class="cls-4"><path id="Path-90" class="cls-3" d="M12.26,13.22a1.81,1.81,0,0,0-1.81,1.83h0V26.28a10.34,10.34,0,0,0,.19,2H19.9a1.22,1.22,0,0,0,1.21-1.22V13.22Z"/><path id="Path-91" class="cls-3" d="M14.87,7.87a5.54,5.54,0,0,0,6.24,3.52V9.09A1.22,1.22,0,0,0,19.9,7.87h-5Z"/><path id="Path-92" class="cls-5" d="M12.26,13.22a1.81,1.81,0,0,0-1.81,1.83h0V26.28a9.78,9.78,0,0,0,1.11,4.59h6.11a1.6,1.6,0,0,0,1.62-1.58h0V13.22Z"/><path id="Path-93" class="cls-6" d="M12.26,13.22a1.81,1.81,0,0,0-1.81,1.83h0V26.28a10,10,0,0,0,.61,3.43h6.61a1.6,1.6,0,0,0,1.62-1.58h0V13.22Z"/><path id="Path-94" class="cls-6" d="M19.26,11.41A1.59,1.59,0,0,0,17.67,10H16.29A5.42,5.42,0,0,0,19.26,11.41Z"/><path id="Path-95" class="cls-5" d="M12.26,13.22a1.81,1.81,0,0,0-1.81,1.83h0V26.28a10.09,10.09,0,0,0,.29,2.39h8.68a1.23,1.23,0,0,0,1.2-1.24h0V13.22Z"/><path id="Path-96" class="cls-5" d="M15,8.24a5.59,5.59,0,0,0,5,3.25,1.87,1.87,0,0,0,.53-.05V9.49a1.22,1.22,0,0,0-1.2-1.23Z"/><path id="Path-97" class="cls-5" d="M15.32,8.76a5.53,5.53,0,0,0,4.77,2.73,1.84,1.84,0,0,0,.52-.05V10a1.22,1.22,0,0,0-1.2-1.23H15.32Z"/><path id="Path-98" class="cls-5" d="M12.26,13.22a1.81,1.81,0,0,0-1.81,1.83h0V26.28A10.1,10.1,0,0,0,10.82,29l8.44.11a1.47,1.47,0,0,0,1.35-1.37V13.18Z"/><path id="Path-99" class="cls-7" d="M19.25,11.41V8.53A1.22,1.22,0,0,0,18,7.3H14.7A5.63,5.63,0,0,0,19.25,11.41Z"/><path id="Path-100" class="cls-7" d="M12.26,13.22a1.81,1.81,0,0,0-1.81,1.83h0V26.22l6.35-.86c.67,0,2.45-.59,2.45-1.27V13.22Z"/><path id="Path-101" class="cls-6" d="M12.26,13.22a1.81,1.81,0,0,0-1.81,1.83h0V26.28a9.84,9.84,0,0,0,.85,4h6.4a1.6,1.6,0,0,0,1.61-1.59h0V13.22Z"/><path id="Path-102" class="cls-6" d="M19.11,11.39a1.63,1.63,0,0,0-1.44-.86h-.73A5.32,5.32,0,0,0,19.11,11.39Z"/><path id="Path-103" class="cls-8" d="M12.26,13.22a1.81,1.81,0,0,0-1.81,1.83h0V26.28a9.58,9.58,0,0,0,.17,1.85h7.06a1.61,1.61,0,0,0,1.61-1.59V13.22Z"/><path id="Path-104" class="cls-8" d="M19.29,11.42V10.35a1.6,1.6,0,0,0-1.61-1.58H15.33a5.61,5.61,0,0,0,4,2.65Z"/><path id="Path-105" class="cls-8" d="M12.26,13.22a1.81,1.81,0,0,0-1.81,1.83h0V26.28A10.15,10.15,0,0,0,10.61,28h7.07a1.6,1.6,0,0,0,1.62-1.59V13.22Z"/><path id="Path-106" class="cls-8" d="M19.29,11.42V10.35a1.6,1.6,0,0,0-1.62-1.58H15.33a5.6,5.6,0,0,0,4,2.65Z"/><path id="Path-107" class="cls-8" d="M12.26,13.22a1.81,1.81,0,0,0-1.81,1.83h0V26.28a10,10,0,0,0,.36,2.66h6.86a1.61,1.61,0,0,0,1.61-1.59V13.22Z"/><path id="Path-108" class="cls-8" d="M19.29,11.42v-.66a1.62,1.62,0,0,0-1.62-1.6H15.61a5.63,5.63,0,0,0,3.68,2.26Z"/><path id="Path-109" class="cls-6" d="M12.26,13.22a1.81,1.81,0,0,0-1.81,1.83h0V26.28a9.27,9.27,0,0,0,.47,3h6.75a1.6,1.6,0,0,0,1.62-1.58h0V13.22Z"/><path id="Path-110" class="cls-6" d="M19.29,11.42v-.3a1.6,1.6,0,0,0-1.61-1.58H15.89A5.6,5.6,0,0,0,19.29,11.42Z"/><path id="Path-111" class="cls-5" d="M20.09,11.49h.31v-.91a1.22,1.22,0,0,0-1.2-1.23H15.72a5.55,5.55,0,0,0,4.37,2.17Z"/><path id="Path-112" class="cls-5" d="M20.4,13.22H12.26a1.81,1.81,0,0,0-1.81,1.83h0V26.28a9.82,9.82,0,0,0,.27,2.29H19.2a1.21,1.21,0,0,0,1.21-1.21h0Z"/><path id="Path-113" class="cls-6" d="M12.26,13.22a1.81,1.81,0,0,0-1.81,1.83h0V26.28a9.9,9.9,0,0,0,.18,1.88h7.64a1.22,1.22,0,0,0,1.21-1.22V13.22Z"/><path id="Path-114" class="cls-6" d="M19.48,11.43v-.85a1.22,1.22,0,0,0-1.21-1.24H15.69a5.58,5.58,0,0,0,3.79,2.09Z"/><path id="Path-115" class="cls-8" d="M19.61,11.45V10c0-.72-1.63-1.13-1.81-1.34a3.46,3.46,0,0,0-1.72-.43H15a5.61,5.61,0,0,0,4.63,3.2Z"/><path id="Path-116" class="cls-8" d="M12.26,13.22a1.81,1.81,0,0,0-1.81,1.83h0V26.28a9.87,9.87,0,0,0,.07,1.22h7.93a1.21,1.21,0,0,0,1.2-1.22h0V13.22Z"/><path id="Path-117" class="cls-5" d="M20,11.48a1.21,1.21,0,0,0-1.19-1.22h-2.2A5.51,5.51,0,0,0,20,11.53Z"/><path id="Path-118" class="cls-5" d="M12.26,13.22a1.81,1.81,0,0,0-1.81,1.83h0V26.28A9.55,9.55,0,0,0,11,29.46H18.8A1.21,1.21,0,0,0,20,28.24h0v-15Z"/><path id="Path-119" class="cls-5" d="M12.26,13.22a1.81,1.81,0,0,0-1.81,1.83h0V26.52l6.34-.86c.67,0,2.45-.59,2.45-1.27V13.25Z"/><path id="Path-120" class="cls-5" d="M19.25,11.41V8.89a1.23,1.23,0,0,0-1.2-1.24H14.8a5.65,5.65,0,0,0,4.45,3.76Z"/><path id="Path-121" class="cls-9" d="M19.25,11.41V9.19A1.22,1.22,0,0,0,18.05,8H14.9a5.67,5.67,0,0,0,4.35,3.45Z"/><path id="Path-122" class="cls-9" d="M12.26,13.22a1.81,1.81,0,0,0-1.81,1.83h0V26.82L16.77,26c.67,0,2.46-.6,2.46-1.27V13.22Z"/></g><path id="Back_Plate-5" data-name="Back Plate-5" class="cls-10" d="M1.61,8.21H17.69A1.62,1.62,0,0,1,19.3,9.85V26.29a1.62,1.62,0,0,1-1.61,1.64H1.61A1.63,1.63,0,0,1,0,26.3H0V9.85A1.62,1.62,0,0,1,1.61,8.21Z"/><path id="Path-123" class="cls-11" d="M14.43,14.34h-3.6v9.89H8.46V14.34H4.85V11.91h9.58Z"/></g></svg>