<svg id="Layer_1" data-name="Layer 1" xmlns="http://www.w3.org/2000/svg" viewBox="0 0 39.45 33.76"><defs><style>.cls-1{fill:#41a5ee;}.cls-2{fill:#103f91;}.cls-3{fill:#185abd;}.cls-4{fill:#2b7cd3;}.cls-5{opacity:0.67;}.cls-6{opacity:0.05;}.cls-10,.cls-11,.cls-6,.cls-7,.cls-8,.cls-9{isolation:isolate;}.cls-7{opacity:0.1;}.cls-8{opacity:0.2;}.cls-9{opacity:0.01;}.cls-10{opacity:0.3;}.cls-11{opacity:0.15;}.cls-12{fill:#fff;}</style></defs><g id="Word_32x" data-name="Word 32x"><g id="icon"><path id="Path-28" class="cls-1" d="M11.51,0H37.8a1.64,1.64,0,0,1,1.65,1.62V32.15a1.63,1.63,0,0,1-1.65,1.61H11.51a1.7,1.7,0,0,1-1.17-.47,1.58,1.58,0,0,1-.48-1.14V1.62A1.6,1.6,0,0,1,10.34.47,1.82,1.82,0,0,1,11.51,0Z"/><path id="Path-29" class="cls-2" d="M39.45,25.33H9.86v6.82a1.63,1.63,0,0,0,1.65,1.61H37.8a1.63,1.63,0,0,0,1.65-1.61h0Z"/><path id="Rectangle-10" class="cls-3" d="M9.86,16.89H39.45v8.44H9.86Z"/><path id="Rectangle-11" class="cls-4" d="M9.86,8.45H39.45v8.44H9.86Z"/></g><g id="dropshadow-2" class="cls-5"><path id="Path-30" class="cls-6" d="M20.35,6.9H11.77a.61.61,0,0,0-.62.6h0V26.29a.63.63,0,0,0,.62.6h8.58a1.22,1.22,0,0,0,1.22-1.21V8.15a1.2,1.2,0,0,0-1.19-1.21h0Z"/><path id="Path-31" class="cls-7" d="M18.06,10.07H9.86V29.43h8.2a1.61,1.61,0,0,0,1.64-1.56V11.58A1.6,1.6,0,0,0,18.06,10.07Z"/><path id="Path-32" class="cls-8" d="M18.06,9H9.86V28.31h8.2a1.61,1.61,0,0,0,1.64-1.56V10.51A1.6,1.6,0,0,0,18.06,9Z"/><path id="Path-33" class="cls-7" d="M19.86,7.28H11.28a.6.6,0,0,0-.61.59h0V26.66a.6.6,0,0,0,.6.6h8.59a1.22,1.22,0,0,0,1.23-1.2V8.48A1.22,1.22,0,0,0,19.86,7.28Z"/><path id="Path-34" class="cls-7" d="M19.83,7.78H11.26a.61.61,0,0,0-.62.6h0V27a.6.6,0,0,0,.6.6h8.59a1.21,1.21,0,0,0,1.24-1.18V9a1.23,1.23,0,0,0-1.24-1.2Z"/><path id="Path-35" class="cls-9" d="M18.45,6.36H9.88V22.15H9.76v2.47a.6.6,0,0,0,.6.6h0L17.23,24c.68,0,2.51-.57,2.51-1.24V7.56a1.21,1.21,0,0,0-1.22-1.2h-.07Z"/><path id="Path-36" class="cls-8" d="M18.06,9.49H9.86V28.84h8.2a1.6,1.6,0,0,0,1.64-1.55V11A1.6,1.6,0,0,0,18.06,9.49Z"/><path id="Path-37" class="cls-10" d="M18.06,7.79H9.86v19h8.2a1.61,1.61,0,0,0,1.66-1.54V9.34a1.6,1.6,0,0,0-1.65-1.55Z"/><path id="Path-38" class="cls-10" d="M18.06,7.79H9.86V26.66h8.2a1.61,1.61,0,0,0,1.66-1.51V9.34a1.6,1.6,0,0,0-1.65-1.55Z"/><path id="Path-39" class="cls-10" d="M18.06,8.15H9.86V27.53h8.2A1.6,1.6,0,0,0,19.7,26V9.73a1.6,1.6,0,0,0-1.62-1.58Z"/><path id="Path-40" class="cls-8" d="M18.06,8.54H9.86V27.9h8.2a1.61,1.61,0,0,0,1.64-1.56V10.15a1.6,1.6,0,0,0-1.59-1.61Z"/><path id="Path-41" class="cls-7" d="M19.64,8.33H11.06a.61.61,0,0,0-.62.6h0V26.57a.61.61,0,0,0,.62.6h8.58A1.21,1.21,0,0,0,20.86,26h0V9.54A1.22,1.22,0,0,0,19.64,8.33Z"/><path id="Path-42" class="cls-8" d="M18.68,8.33H10.11a.45.45,0,0,0-.23,0V26.75a.89.89,0,0,0,.23,0h8.57a1.22,1.22,0,0,0,1.23-1.21h0v-16a1.22,1.22,0,0,0-1.23-1.21Z"/><path id="Path-43" class="cls-10" d="M16.52,7.29H10.29a.63.63,0,0,0-.62.6V25.52a.61.61,0,0,0,.62.6h8.57a1.22,1.22,0,0,0,1.23-1.2V9c0-.72-1.66-1.1-1.85-1.32A3.8,3.8,0,0,0,16.52,7.29Z"/><path id="Path-44" class="cls-7" d="M19.22,9.2H10.65a.63.63,0,0,0-.62.6V27.44a.63.63,0,0,0,.62.6h8.57a1.22,1.22,0,0,0,1.23-1.21h0V10.41A1.22,1.22,0,0,0,19.23,9.2Z"/><path id="Path-45" class="cls-7" d="M18.45,6.69H9.88V22.46H9.76v2.47a.6.6,0,0,0,.6.6h0l6.86-1.22c.68,0,2.51-.58,2.51-1.25V7.88a1.22,1.22,0,0,0-1.26-1.19Z"/><path id="Path-46" class="cls-11" d="M18.45,7H9.88V22.76H9.76v2.47a.6.6,0,0,0,.6.6h0l6.86-1.22c.68,0,2.51-.58,2.51-1.25V8.2A1.22,1.22,0,0,0,18.47,7h0Z"/></g><path id="Back_Plate-2" data-name="Back Plate-2" class="cls-3" d="M1.64,7.24H18.06A1.62,1.62,0,0,1,19.7,8.85V24.92a1.63,1.63,0,0,1-1.64,1.62H1.64a1.73,1.73,0,0,1-1.16-.48A1.58,1.58,0,0,1,0,24.92V8.84A1.63,1.63,0,0,1,1.64,7.24Z"/><path id="Letter" class="cls-12" d="M14.91,22.92H12.7L10.11,14.6,7.4,22.92H5.18L2.71,10.86H4.93L6.65,19.3l2.59-8.2h1.85l2.47,8.2,1.72-8.44h2.1Z"/></g></svg>